<svg version="1" xmlns="http://www.w3.org/2000/svg" width="333.333" height="333.333" viewBox="0 0 250.000000 250.000000"><path d="M107 47.1c-9.6 16-18.1 29.3-18.7 29.6-.7.3-11.3-5.1-23.5-12C52.5 57.9 40.3 51 37.5 49.5c-2.7-1.5-5.5-3.1-6.1-3.6-.8-.7-.9.1-.4 2.8 1.1 5.1.3 1.8 13.4 55.3 4.6 19 10.1 41.5 12.1 50l3.7 15.5 15.3 15c29 28.6 48.7 47.5 49.5 47.5.4 0 3.7-2.8 7.3-6.3 3.5-3.4 17.8-17.3 31.8-30.8l25.4-24.7 6.4-26.3c3.6-14.5 6.6-26.9 6.7-27.4.1-.9 6-25 14.8-60.5 1.2-5.2 2.2-9.6 2.1-9.8-.3-.3-11.4 5.5-15.6 8-1.3.9-4.9 2.9-7.9 4.5s-11.7 6.5-19.3 10.7c-7.5 4.3-14.3 7.6-15 7.3-.9-.4-12.5-18.9-21.2-33.9-.5-.9-3.7-6.1-7-11.5s-6.3-10.6-6.7-11.6c-.4-.9-1.1-1.7-1.5-1.7-.4 0-8.7 13.1-18.3 29.1z"/></svg>